<svg width="20" height="21" viewBox="0 0 20 21" fill="none" xmlns="http://www.w3.org/2000/svg">
<path d="M1 4.67157V3C1 1.89543 1.89543 1 3 1H17C18.1046 1 19 1.89543 19 3V4.6202C19 5.18081 18.7647 5.71569 18.3514 6.09451L13.6486 10.4055C13.2353 10.7843 13 11.3192 13 11.8798V16.382C13 16.7607 12.786 17.107 12.4472 17.2764L8.44721 19.2764C7.78231 19.6088 7 19.1253 7 18.382V12.3284C7 11.798 6.78929 11.2893 6.41421 10.9142L1.58579 6.08579C1.21071 5.71071 1 5.20201 1 4.67157Z" stroke="#F2F2F2" stroke-width="1.5" stroke-linecap="round"/>
</svg>
